<?xml version="1.0" encoding="UTF-8"?>
<svg version="1.1" xmlns="http://www.w3.org/2000/svg" width="512" height="512">
<path d="M0 0 C1.14805115 -0.01043099 2.29610229 -0.02086198 3.47894287 -0.03160906 C5.37171967 -0.01822473 5.37171967 -0.01822473 7.30273438 -0.00457001 C8.65627718 -0.00917791 10.00981498 -0.01553008 11.36334229 -0.02347898 C15.08643439 -0.0402111 18.80911753 -0.03190862 22.5322113 -0.01953411 C26.54591677 -0.01050169 30.55955081 -0.02444433 34.57324219 -0.0354538 C42.4374916 -0.05326301 50.30158852 -0.04938838 58.16584396 -0.03780323 C64.5558879 -0.02877861 70.94588902 -0.0275407 77.3359375 -0.0318985 C78.24455914 -0.03251143 79.15318077 -0.03312436 80.0893364 -0.03375587 C81.93504335 -0.03503474 83.78075029 -0.03633159 85.62645721 -0.03764623 C102.94356769 -0.04905907 120.26059353 -0.03592731 137.57769012 -0.01444477 C152.44441393 0.00342685 167.31101282 0.00032294 182.17773438 -0.01811981 C199.43184467 -0.03951412 216.68588074 -0.04796037 233.94000244 -0.03567076 C235.77901203 -0.03439653 237.61802164 -0.03313905 239.45703125 -0.0318985 C240.36191662 -0.0312814 241.26680199 -0.03066429 242.19910812 -0.03002849 C248.58327767 -0.02657127 254.96740023 -0.03241195 261.3515625 -0.04181671 C269.12917609 -0.0530221 276.90662815 -0.05002751 284.68422318 -0.02869374 C288.65435936 -0.01816353 292.62422601 -0.01409475 296.59436035 -0.02729034 C300.22636263 -0.03917973 303.85784466 -0.03270964 307.4897995 -0.01138014 C309.43120875 -0.00477095 311.37265391 -0.0178811 313.31402588 -0.03160906 C315.0361026 -0.01596257 315.0361026 -0.01596257 316.79296875 0 C317.78566772 0.00064941 318.7783667 0.00129882 319.80114746 0.00196791 C323.2662913 0.67140374 324.39004668 1.60562737 326.39648438 4.50336456 C326.78886124 7.09639048 326.93479447 9.265297 326.89984894 11.8560257 C326.9056627 12.60232711 326.91147646 13.34862852 326.9174664 14.11754513 C326.93213045 16.63254345 326.91815194 19.14657557 326.90441895 21.66156769 C326.90902534 23.4770864 326.91537649 25.29260138 326.92332792 27.10810852 C326.94008029 32.10814202 326.93174811 37.10787151 326.91938305 42.10790634 C326.91035898 47.4958506 326.92428912 52.88374137 326.93530273 58.27167511 C326.95312086 68.83102045 326.94923332 79.39025228 326.93765217 89.94960213 C326.92863106 98.52881174 326.92738811 107.10798946 326.93174744 115.68720245 C326.93236037 116.90666455 326.9329733 118.12612664 326.93360481 119.38254213 C326.93488366 121.85959308 326.93618052 124.33664402 326.93749517 126.81369495 C326.94891062 150.05953087 326.93577213 173.30530376 326.91429371 196.55112934 C326.89642187 216.51180182 326.8995257 236.47238126 326.91796875 256.43305206 C326.93935843 279.59378085 326.94781189 302.75445436 326.9355197 325.91519165 C326.93424545 328.38330332 326.93298797 330.85141499 326.93174744 333.31952667 C326.93082178 335.14122525 326.93082178 335.14122525 326.92987743 336.99972582 C326.92641882 345.57199712 326.93226387 354.14423345 326.94166565 362.71649933 C326.95286588 373.1584176 326.94988725 383.60021555 326.92854267 394.04211998 C326.91800564 399.37321218 326.91395552 404.70410353 326.92713928 410.0351944 C326.93901417 414.91063278 326.93258202 419.78568316 326.91122907 424.66108608 C326.90674212 426.42952813 326.90907584 428.19800262 326.91873223 429.96642399 C326.9308131 432.36165661 326.91850748 434.75554238 326.89984894 437.15070343 C326.9092136 437.84496398 326.91857827 438.53922453 326.92822671 439.25452328 C326.87801102 442.45713029 326.55461899 444.2749834 324.71524382 446.9314456 C321.84976598 448.87399249 320.24077765 449.00447362 316.79296875 449.00672913 C315.6449176 449.01716012 314.49686646 449.0275911 313.31402588 449.03833818 C312.05217468 449.0294153 310.79032349 449.02049241 309.49023438 449.01129913 C308.13669157 449.01590703 306.78315377 449.0222592 305.42962646 449.03020811 C301.70653436 449.04694022 297.98385122 449.03863774 294.26075745 449.02626324 C290.24705198 449.01723081 286.23341794 449.03117345 282.21972656 449.04218292 C274.35547715 449.05999214 266.49138023 449.05611751 258.62712479 449.04453236 C252.23708085 449.03550773 245.84707973 449.03426982 239.45703125 449.03862762 C238.54840961 449.03924056 237.63978798 449.03985349 236.70363235 449.04048499 C234.8579254 449.04176386 233.01221846 449.04306072 231.16651154 449.04437536 C213.84940106 449.05578819 196.53237522 449.04265644 179.21527863 449.02117389 C164.34855482 449.00330227 149.48195593 449.00640618 134.61523438 449.02484894 C117.36112408 449.04624325 100.10708801 449.05468949 82.85296631 449.04239988 C81.01395672 449.04112565 79.17494711 449.03986817 77.3359375 449.03862762 C76.43105213 449.03801052 75.52616676 449.03739342 74.59386063 449.03675762 C68.20969108 449.03330039 61.82556852 449.03914107 55.44140625 449.04854584 C47.66379266 449.05975123 39.8863406 449.05675664 32.10874557 449.03542286 C28.13860939 449.02489266 24.16874274 449.02082387 20.1986084 449.03401947 C16.56660612 449.04590886 12.93512409 449.03943877 9.30316925 449.01810926 C7.36176 449.01150008 5.42031484 449.02461022 3.47894287 449.03833818 C1.75686615 449.0226917 1.75686615 449.0226917 0 449.00672913 C-0.99269897 449.00607972 -1.98539795 449.00543031 -3.00817871 449.00476122 C-6.47332255 448.33532538 -7.59707793 447.40110176 -9.60351562 444.50336456 C-9.99589249 441.91033864 -10.14182572 439.74143213 -10.10688019 437.15070343 C-10.11269395 436.40440202 -10.11850771 435.65810061 -10.12449765 434.889184 C-10.1391617 432.37418568 -10.12518319 429.86015356 -10.1114502 427.34516144 C-10.11605659 425.52964273 -10.12240774 423.71412774 -10.13035917 421.89862061 C-10.14711154 416.89858711 -10.13877936 411.89885761 -10.1264143 406.89882278 C-10.11739023 401.51087853 -10.13132037 396.12298776 -10.14233398 390.73505402 C-10.16015211 380.17570868 -10.15626457 369.61647685 -10.14468342 359.057127 C-10.13566231 350.47791739 -10.13441936 341.89873966 -10.13877869 333.31952667 C-10.13939162 332.10006458 -10.14000455 330.88060248 -10.14063606 329.62418699 C-10.14191491 327.14713604 -10.14321177 324.6700851 -10.14452642 322.19303417 C-10.15594187 298.94719826 -10.14280338 275.70142536 -10.12132496 252.45559978 C-10.10345312 232.49492731 -10.10655695 212.53434786 -10.125 192.57367706 C-10.14638968 169.41294827 -10.15484314 146.25227476 -10.14255095 123.09153748 C-10.1412767 120.62342581 -10.14001922 118.15531414 -10.13877869 115.68720245 C-10.13816158 114.47273674 -10.13754448 113.25827102 -10.13690868 112.00700331 C-10.13345007 103.43473201 -10.13929512 94.86249568 -10.1486969 86.2902298 C-10.15989713 75.84831152 -10.1569185 65.40651357 -10.13557392 54.96460915 C-10.12503689 49.63351694 -10.12098677 44.3026256 -10.13417053 38.97153473 C-10.14604542 34.09609635 -10.13961327 29.22104597 -10.11826032 24.34564304 C-10.11377337 22.577201 -10.11610709 20.80872651 -10.12576348 19.04030514 C-10.13784435 16.64507252 -10.12553873 14.25118675 -10.10688019 11.8560257 C-10.11624485 11.16176515 -10.12560952 10.4675046 -10.13525796 9.75220585 C-10.08504227 6.54959883 -9.76165024 4.73174572 -7.92227507 2.07528353 C-5.05679723 0.13273663 -3.4478089 0.00225551 0 0 Z M24.39648438 43.50336456 C21.05980303 48.99642504 22.06212505 55.99227154 22.08081055 62.22284698 C22.08396996 64.43078771 22.06048775 66.6373861 22.03515625 68.84516144 C22.03288278 70.26117539 22.03217999 71.67719291 22.03320312 73.09320831 C22.03022217 74.37058868 22.02724121 75.64796906 22.02416992 76.96405792 C22.43596322 80.87865955 23.20206314 83.23972049 25.39648438 86.50336456 C30.14076714 89.27391171 35.3546762 88.78463696 40.6761322 88.76406097 C42.2442744 88.76979929 42.2442744 88.76979929 43.84409624 88.77565354 C47.35241392 88.78598472 50.86056797 88.78199112 54.36889648 88.77802277 C56.88203585 88.78236915 59.39517388 88.78755205 61.90830994 88.79351044 C68.02912859 88.80552601 74.14988677 88.80805093 80.27071493 88.80571017 C85.24575933 88.80392711 90.2207904 88.8056764 95.19583321 88.80993462 C95.9039159 88.81052981 96.61199859 88.81112499 97.34153833 88.81173822 C98.78000827 88.81294997 100.21847822 88.8141641 101.65694816 88.8153806 C115.14655543 88.82625673 128.6361377 88.82409325 142.12574638 88.81799575 C154.46600563 88.81282607 166.80618595 88.82408323 179.14642959 88.84309397 C191.81858339 88.86246634 204.49069985 88.87072946 217.16286856 88.86697072 C224.27686349 88.86505781 231.39079124 88.86755492 238.50477409 88.88168526 C245.19341977 88.89483635 251.8818817 88.89234724 258.57053566 88.87927437 C261.02717008 88.87690269 263.48381555 88.87966432 265.94043732 88.88789749 C269.2904277 88.8983163 272.63988209 88.89030298 275.98985291 88.87758636 C277.45264558 88.88864779 277.45264558 88.88864779 278.94498962 88.89993268 C284.16749692 88.85814308 287.90476987 88.48539363 292.39648438 85.50336456 C295.73316572 80.01030409 294.7308437 73.01445758 294.7121582 66.78388214 C294.70899879 64.57594141 294.732481 62.36934302 294.7578125 60.16156769 C294.76008597 58.74555374 294.76078876 57.32953622 294.75976562 55.91352081 C294.76274658 54.63614044 294.76572754 53.35876007 294.76879883 52.0426712 C294.35700553 48.12806957 293.59090561 45.76700864 291.39648438 42.50336456 C286.65220161 39.73281741 281.43829255 40.22209216 276.11683655 40.24266815 C274.54869435 40.23692983 274.54869435 40.23692983 272.94887251 40.23107558 C269.44055483 40.22074441 265.93240078 40.22473801 262.42407227 40.22870636 C259.9109329 40.22435997 257.39779487 40.21917707 254.88465881 40.21321869 C248.76384016 40.20120312 242.64308198 40.19867819 236.52225382 40.20101895 C231.54720942 40.20280202 226.57217835 40.20105272 221.59713554 40.19679451 C220.88905285 40.19619932 220.18097016 40.19560413 219.45143042 40.19499091 C218.01296048 40.19377916 216.57449053 40.19256502 215.13602059 40.19134853 C201.64641332 40.1804724 188.15683105 40.18263588 174.66722237 40.18873338 C162.32696312 40.19390305 149.9867828 40.1826459 137.64653916 40.16363516 C124.97438536 40.14426279 112.3022689 40.13599967 99.63010019 40.13975841 C92.51610526 40.14167131 85.40217751 40.13917421 78.28819466 40.12504387 C71.59954898 40.11189277 64.91108705 40.11438188 58.22243309 40.12745476 C55.76579867 40.12982644 53.3091532 40.12706481 50.85253143 40.11883163 C47.50254105 40.10841283 44.15308666 40.11642615 40.80311584 40.12914276 C39.34032317 40.11808133 39.34032317 40.11808133 37.84797913 40.10679644 C32.62547183 40.14858605 28.88819888 40.5213355 24.39648438 43.50336456 Z M24.39648438 115.50336456 C22.26835807 119.12269556 22.14389032 122.3888305 22.13578796 126.53105927 C22.12870316 127.74089981 22.12161835 128.95074036 22.11431885 130.19724274 C22.11679626 131.51634644 22.11927368 132.83545013 22.12182617 134.19452667 C22.11747677 135.60423299 22.11229285 137.01393694 22.1063385 138.42363739 C22.09296208 142.24596302 22.09236829 146.06818969 22.0949018 149.89053416 C22.09597239 153.08387437 22.09108591 156.27719464 22.08629638 159.47053057 C22.07520598 167.00517209 22.07476122 174.53976375 22.08081055 182.07440948 C22.08685138 189.84237423 22.07453554 197.6101579 22.05324048 205.37809175 C22.03561717 212.05255281 22.02962425 218.72695626 22.03287822 225.40143973 C22.03469 229.38554246 22.03206546 233.36951601 22.01816368 237.35359764 C22.00557795 241.10061971 22.0075363 244.84735972 22.02057457 248.59437752 C22.02406336 250.62091178 22.01276799 252.64745469 22.00100708 254.67395782 C22.00802139 255.88661819 22.01503571 257.09927856 22.02226257 258.34868622 C22.02209483 259.39856688 22.02192709 260.44844755 22.02175426 261.53014278 C22.47620231 265.13587074 23.40971278 267.46028084 25.39648438 270.50336456 C29.17033837 272.75941353 32.70115764 272.75644651 37.03160095 272.76406097 C37.68500806 272.76788652 38.33841517 272.77171207 39.01162249 272.77565354 C41.1932965 272.78594302 43.37470534 272.78199921 45.55639648 272.77802277 C47.12373599 272.78237148 48.69107337 272.78755516 50.25840759 272.79351044 C54.51046887 272.80689425 58.76244122 272.80747982 63.01451945 272.80494714 C66.56574613 272.80387705 70.11695484 272.80876173 73.66817766 272.81355256 C82.04662106 272.82464551 90.42501961 272.82508628 98.8034668 272.81903839 C107.44392959 272.81299724 116.08422961 272.82531366 124.72466463 272.84660846 C132.14646439 272.86422659 139.56821235 272.8702255 146.99003226 272.86697072 C151.42126076 272.86515813 155.85237313 272.86779166 160.28358269 272.88168526 C164.45083241 272.89426252 168.6178284 272.89232054 172.78507423 272.87927437 C174.31287598 272.87690885 175.84069559 272.87964243 177.36847687 272.88789749 C179.4574063 272.89836918 181.54548497 272.89026201 183.63438416 272.87758636 C185.38618941 272.87783798 185.38618941 272.87783798 187.17338467 272.87809467 C190.91478022 272.44310547 193.25614296 271.58243679 196.39648438 269.50336456 C198.52461068 265.88403356 198.64907843 262.61789863 198.65718079 258.47566986 C198.66426559 257.26582932 198.6713504 256.05598877 198.6786499 254.80948639 C198.67617249 253.49038269 198.67369507 252.17127899 198.67114258 250.81220245 C198.67549198 249.40249614 198.6806759 247.99279219 198.68663025 246.58309174 C198.70000667 242.7607661 198.70060046 238.93853944 198.69806695 235.11619496 C198.69699636 231.92285475 198.70188284 228.72953449 198.70667237 225.53619856 C198.71776277 218.00155704 198.71820753 210.46696537 198.7121582 202.93231964 C198.70611737 195.16435489 198.71843321 187.39657123 198.73972827 179.62863737 C198.75735158 172.95417632 198.7633445 166.27977286 198.76009053 159.6052894 C198.75827875 155.62118666 198.76090329 151.63721312 198.77480507 147.65313148 C198.7873908 143.90610941 198.78543245 140.15936941 198.77239418 136.41235161 C198.76890539 134.38581735 198.78020076 132.35927444 198.79196167 130.3327713 C198.78494736 129.12011093 198.77793304 127.90745056 198.77070618 126.65804291 C198.77087392 125.60816224 198.77104166 124.55828157 198.77121449 123.47658634 C198.31676644 119.87085838 197.38325597 117.54644828 195.39648438 114.50336456 C191.62263038 112.2473156 188.09181111 112.25028262 183.7613678 112.24266815 C183.10796069 112.2388426 182.45455358 112.23501706 181.78134626 112.23107558 C179.59967225 112.22078611 177.41826341 112.22472991 175.23657227 112.22870636 C173.66923276 112.22435765 172.10189538 112.21917396 170.53456116 112.21321869 C166.28249988 112.19983488 162.03052753 112.19924931 157.7784493 112.20178199 C154.22722262 112.20285207 150.67601391 112.19796739 147.12479109 112.19317657 C138.74634769 112.18208362 130.36794914 112.18164285 121.98950195 112.18769073 C113.34903916 112.19373188 104.70873914 112.18141547 96.06830412 112.16012067 C88.64650436 112.14250253 81.2247564 112.13650362 73.80293649 112.13975841 C69.37170799 112.141571 64.94059562 112.13893746 60.50938606 112.12504387 C56.34213634 112.1124666 52.17514035 112.11440859 48.00789452 112.12745476 C46.48009277 112.12982028 44.95227316 112.12708669 43.42449188 112.11883163 C41.33556245 112.10835994 39.24748378 112.11646711 37.15858459 112.12914276 C35.99071443 112.12897502 34.82284426 112.12880728 33.61958408 112.12863445 C29.87818853 112.56362365 27.53682579 113.42429233 24.39648438 115.50336456 Z M216.39648438 115.50336456 C213.68608032 119.74681804 214.09034662 124.65075428 214.09570312 129.53070831 C214.091418 130.39724533 214.08713287 131.26378235 214.0827179 132.15657806 C214.07698894 133.98464842 214.07646374 135.81274157 214.08081055 137.64081573 C214.08396988 140.42807893 214.06049605 143.21427936 214.03515625 146.00141144 C214.03288295 147.78200906 214.03217991 149.56260953 214.03320312 151.34320831 C214.02399338 152.1715065 214.01478363 152.99980469 214.0052948 153.85320282 C214.04426529 158.75979868 214.48717166 162.35429016 217.39648438 166.50336456 C221.23132639 168.48101371 224.46585647 168.76022944 228.74389648 168.77802277 C230.0054808 168.78755478 231.26706512 168.79708679 232.56687927 168.80690765 C233.93586251 168.80664621 235.30484576 168.80570906 236.67382812 168.80414581 C238.08720525 168.80803622 239.50058122 168.8123716 240.91395569 168.81713104 C243.87195633 168.82457936 246.82983759 168.82431206 249.7878418 168.81903839 C253.56844006 168.81324476 257.34854824 168.8301784 261.12906551 168.85338306 C264.04682751 168.86815281 266.96447233 168.86898774 269.88226509 168.86587334 C271.27565036 168.8663849 272.66904248 168.87159154 274.06239128 168.88168526 C276.01478169 168.89409423 277.96727157 168.88529456 279.91967773 168.87567902 C281.02822617 168.87630844 282.1367746 168.87693787 283.27891541 168.87758636 C286.88555841 168.44465787 289.29431895 167.36635237 292.39648438 165.50336456 C295.10688843 161.25991108 294.70262213 156.35597484 294.69726562 151.47602081 C294.70369331 150.17621529 294.70369331 150.17621529 294.71025085 148.85015106 C294.71597981 147.0220807 294.71650501 145.19398756 294.7121582 143.36591339 C294.70899887 140.5786502 294.7324727 137.79244977 294.7578125 135.00531769 C294.7600858 133.22472006 294.76078884 131.4441196 294.75976562 129.66352081 C294.76897537 128.83522263 294.77818512 128.00692444 294.78767395 127.15352631 C294.74870346 122.24693044 294.30579709 118.65243897 291.39648438 114.50336456 C287.56164236 112.52571541 284.32711228 112.24649968 280.04907227 112.22870636 C278.78748795 112.21917435 277.52590363 112.20964233 276.22608948 112.19982147 C274.85710624 112.20008292 273.48812299 112.20102006 272.11914062 112.20258331 C270.7057635 112.1986929 269.29238753 112.19435752 267.87901306 112.18959808 C264.92101242 112.18214977 261.96313116 112.18241706 259.00512695 112.18769073 C255.22452869 112.19348437 251.44442051 112.17655072 247.66390324 112.15334606 C244.74614124 112.13857632 241.82849642 112.13774138 238.91070366 112.14085579 C237.51731839 112.14034423 236.12392627 112.13513758 234.73057747 112.12504387 C232.77818706 112.1126349 230.82569718 112.12143457 228.87329102 112.13105011 C227.76474258 112.13042068 226.65619415 112.12979126 225.51405334 112.12914276 C221.90741034 112.56207126 219.4986498 113.64037676 216.39648438 115.50336456 Z M216.39648438 187.50336456 C214.97606617 190.34420098 215.08196165 192.35813734 215.39648438 195.50336456 C217.62854868 198.35117075 218.94641436 199.35334122 222.39648438 200.50336456 C224.43465571 200.60745064 226.47605681 200.65196853 228.5168457 200.66449738 C230.40944878 200.67890869 230.40944878 200.67890869 232.34028625 200.69361115 C233.7196942 200.69845959 235.09910426 200.70273831 236.47851562 200.70648956 C237.89474997 200.71224406 239.31098431 200.71800175 240.72721863 200.72376251 C243.69713707 200.73426457 246.6670285 200.74011223 249.63696289 200.74359894 C253.43327978 200.74907776 257.22923694 200.77309564 261.02544117 200.80157089 C263.95176722 200.82024255 266.87800747 200.8254053 269.80438805 200.82693481 C271.20336559 200.82995239 272.60234195 200.83795062 274.00126076 200.85112 C275.96341417 200.86827102 277.92571655 200.8644424 279.88793945 200.85980988 C281.55981071 200.86527832 281.55981071 200.86527832 283.26545715 200.87085724 C286.88019084 200.44659132 289.29251967 199.37660445 292.39648438 197.50336456 C293.81690258 194.66252815 293.7110071 192.64859179 293.39648438 189.50336456 C291.16442007 186.65555838 289.84655439 185.6533879 286.39648438 184.50336456 C284.35831304 184.39927849 282.31691194 184.3547606 280.27612305 184.34223175 C278.38351997 184.32782043 278.38351997 184.32782043 276.4526825 184.31311798 C275.07327455 184.30826953 273.69386449 184.30399082 272.31445312 184.30023956 C270.89821878 184.29448507 269.48198444 184.28872737 268.06575012 184.28296661 C265.09583168 184.27246455 262.12594025 184.2666169 259.15600586 184.26313019 C255.35968897 184.25765137 251.56373181 184.23363348 247.76752758 184.20515823 C244.84120153 184.18648658 241.91496128 184.18132383 238.9885807 184.17979431 C237.58960316 184.17677674 236.1906268 184.16877851 234.79170799 184.15560913 C232.82955458 184.13845811 230.8672522 184.14228673 228.9050293 184.14691925 C227.23315804 184.14145081 227.23315804 184.14145081 225.5275116 184.13587189 C221.91277791 184.56013781 219.50044908 185.63012467 216.39648438 187.50336456 Z M216.39648438 219.50336456 C214.97606617 222.34420098 215.08196165 224.35813734 215.39648438 227.50336456 C217.62854868 230.35117075 218.94641436 231.35334122 222.39648438 232.50336456 C224.43465571 232.60745064 226.47605681 232.65196853 228.5168457 232.66449738 C230.40944878 232.67890869 230.40944878 232.67890869 232.34028625 232.69361115 C233.7196942 232.69845959 235.09910426 232.70273831 236.47851562 232.70648956 C237.89474997 232.71224406 239.31098431 232.71800175 240.72721863 232.72376251 C243.69713707 232.73426457 246.6670285 232.74011223 249.63696289 232.74359894 C253.43327978 232.74907776 257.22923694 232.77309564 261.02544117 232.80157089 C263.95176722 232.82024255 266.87800747 232.8254053 269.80438805 232.82693481 C271.20336559 232.82995239 272.60234195 232.83795062 274.00126076 232.85112 C275.96341417 232.86827102 277.92571655 232.8644424 279.88793945 232.85980988 C281.55981071 232.86527832 281.55981071 232.86527832 283.26545715 232.87085724 C286.88019084 232.44659132 289.29251967 231.37660445 292.39648438 229.50336456 C293.81690258 226.66252815 293.7110071 224.64859179 293.39648438 221.50336456 C291.16442007 218.65555838 289.84655439 217.6533879 286.39648438 216.50336456 C284.35831304 216.39927849 282.31691194 216.3547606 280.27612305 216.34223175 C278.38351997 216.32782043 278.38351997 216.32782043 276.4526825 216.31311798 C275.07327455 216.30826953 273.69386449 216.30399082 272.31445312 216.30023956 C270.89821878 216.29448507 269.48198444 216.28872737 268.06575012 216.28296661 C265.09583168 216.27246455 262.12594025 216.2666169 259.15600586 216.26313019 C255.35968897 216.25765137 251.56373181 216.23363348 247.76752758 216.20515823 C244.84120153 216.18648658 241.91496128 216.18132383 238.9885807 216.17979431 C237.58960316 216.17677674 236.1906268 216.16877851 234.79170799 216.15560913 C232.82955458 216.13845811 230.8672522 216.14228673 228.9050293 216.14691925 C227.23315804 216.14145081 227.23315804 216.14145081 225.5275116 216.13587189 C221.91277791 216.56013781 219.50044908 217.63012467 216.39648438 219.50336456 Z M216.39648438 251.50336456 C214.97606617 254.34420098 215.08196165 256.35813734 215.39648438 259.50336456 C217.62854868 262.35117075 218.94641436 263.35334122 222.39648438 264.50336456 C224.43465571 264.60745064 226.47605681 264.65196853 228.5168457 264.66449738 C230.40944878 264.67890869 230.40944878 264.67890869 232.34028625 264.69361115 C233.7196942 264.69845959 235.09910426 264.70273831 236.47851562 264.70648956 C237.89474997 264.71224406 239.31098431 264.71800175 240.72721863 264.72376251 C243.69713707 264.73426457 246.6670285 264.74011223 249.63696289 264.74359894 C253.43327978 264.74907776 257.22923694 264.77309564 261.02544117 264.80157089 C263.95176722 264.82024255 266.87800747 264.8254053 269.80438805 264.82693481 C271.20336559 264.82995239 272.60234195 264.83795062 274.00126076 264.85112 C275.96341417 264.86827102 277.92571655 264.8644424 279.88793945 264.85980988 C281.55981071 264.86527832 281.55981071 264.86527832 283.26545715 264.87085724 C286.88019084 264.44659132 289.29251967 263.37660445 292.39648438 261.50336456 C293.81690258 258.66252815 293.7110071 256.64859179 293.39648438 253.50336456 C291.16442007 250.65555838 289.84655439 249.6533879 286.39648438 248.50336456 C284.35831304 248.39927849 282.31691194 248.3547606 280.27612305 248.34223175 C278.38351997 248.32782043 278.38351997 248.32782043 276.4526825 248.31311798 C275.07327455 248.30826953 273.69386449 248.30399082 272.31445312 248.30023956 C270.89821878 248.29448507 269.48198444 248.28872737 268.06575012 248.28296661 C265.09583168 248.27246455 262.12594025 248.2666169 259.15600586 248.26313019 C255.35968897 248.25765137 251.56373181 248.23363348 247.76752758 248.20515823 C244.84120153 248.18648658 241.91496128 248.18132383 238.9885807 248.17979431 C237.58960316 248.17677674 236.1906268 248.16877851 234.79170799 248.15560913 C232.82955458 248.13845811 230.8672522 248.14228673 228.9050293 248.14691925 C227.23315804 248.14145081 227.23315804 248.14145081 225.5275116 248.13587189 C221.91277791 248.56013781 219.50044908 249.63012467 216.39648438 251.50336456 Z M24.39648438 307.50336456 C22.97606617 310.34420098 23.08196165 312.35813734 23.39648438 315.50336456 C25.62854868 318.35117075 26.94641436 319.35334122 30.39648438 320.50336456 C31.84436437 320.59544571 33.29611166 320.63245368 34.74691486 320.63479233 C35.64093708 320.63863347 36.5349593 320.64247462 37.45607311 320.64643216 C38.43932463 320.64556568 39.42257615 320.6446992 40.43562317 320.64380646 C42.00120209 320.64826314 42.00120209 320.64826314 43.59840888 320.65280986 C47.11289583 320.66151544 50.6273488 320.66300667 54.1418457 320.66449738 C56.65468926 320.66912421 59.16753212 320.67414869 61.68037415 320.67954254 C68.5192245 320.69268097 75.35806362 320.69915078 82.19692445 320.7035532 C86.4666438 320.70631533 90.73636089 320.71055262 95.00607872 320.71505737 C106.82630808 320.72725014 118.64653562 320.7375495 130.46677113 320.74093246 C131.22336487 320.74115203 131.97995862 320.7413716 132.75947944 320.74159782 C133.89709389 320.74192523 133.89709389 320.74192523 135.05769044 320.74225926 C136.59453126 320.74270273 138.13137208 320.74314929 139.66821289 320.74359894 C140.43053991 320.74382037 141.19286692 320.7440418 141.97829475 320.74426994 C154.33160995 320.74821822 166.68486616 320.76567312 179.03815857 320.78895846 C191.71928404 320.81266893 204.4003799 320.82513417 217.08152789 320.82630038 C224.20226579 320.82721731 231.32292683 320.83297396 238.44364357 320.85112 C245.14046101 320.86812558 251.83710761 320.8697759 258.5339489 320.86098099 C260.99381017 320.86020845 263.45367917 320.86458165 265.91352081 320.87443924 C269.26798753 320.88709507 272.62193198 320.88131623 275.97639465 320.87085724 C276.95295401 320.87891364 277.92951337 320.88697005 278.93566543 320.89527059 C284.16005331 320.85709564 287.90233026 320.48928229 292.39648438 317.50336456 C293.81690258 314.66252815 293.7110071 312.64859179 293.39648438 309.50336456 C291.16442007 306.65555838 289.84655439 305.6533879 286.39648438 304.50336456 C284.94860438 304.41128342 283.49685709 304.37427545 282.04605389 304.3719368 C281.15203167 304.36809565 280.25800945 304.36425451 279.33689564 304.36029696 C278.35364412 304.36116345 277.3703926 304.36202993 276.35734558 304.36292267 C275.3136263 304.35995155 274.26990701 304.35698042 273.19455987 304.35391927 C269.68007292 304.34521369 266.16561995 304.34372245 262.65112305 304.34223175 C260.13827949 304.33760492 257.62543663 304.33258044 255.1125946 304.32718658 C248.27374425 304.31404816 241.43490513 304.30757834 234.5960443 304.30317593 C230.32632495 304.3004138 226.05660786 304.2961765 221.78689003 304.29167175 C209.96666067 304.27947898 198.14643313 304.26917963 186.32619762 304.26579666 C185.56960388 304.2655771 184.81301013 304.26535753 184.03348931 304.26513131 C182.89587486 304.26480389 182.89587486 304.26480389 181.73527831 304.26446986 C180.19843749 304.26402639 178.66159667 304.26357983 177.12475586 304.26313019 C176.36242884 304.26290876 175.60010183 304.26268733 174.814674 304.26245919 C162.4613588 304.2585109 150.10810259 304.241056 137.75481018 304.21777067 C125.07368471 304.1940602 112.39258885 304.18159495 99.71144086 304.18042874 C92.59070296 304.17951182 85.47004192 304.17375517 78.34932518 304.15560913 C71.65250774 304.13860354 64.95586114 304.13695323 58.25901985 304.14574814 C55.79915858 304.14652067 53.33928958 304.14214747 50.87944794 304.13228989 C47.52498122 304.11963406 44.17103677 304.12541289 40.8165741 304.13587189 C39.84001474 304.12781548 38.86345538 304.11975908 37.85730332 304.11145854 C32.63291544 304.14963349 28.89063849 304.51744683 24.39648438 307.50336456 Z M24.39648438 347.50336456 C22.97606617 350.34420098 23.08196165 352.35813734 23.39648438 355.50336456 C25.62854868 358.35117075 26.94641436 359.35334122 30.39648438 360.50336456 C31.84436437 360.59544571 33.29611166 360.63245368 34.74691486 360.63479233 C35.64093708 360.63863347 36.5349593 360.64247462 37.45607311 360.64643216 C38.43932463 360.64556568 39.42257615 360.6446992 40.43562317 360.64380646 C42.00120209 360.64826314 42.00120209 360.64826314 43.59840888 360.65280986 C47.11289583 360.66151544 50.6273488 360.66300667 54.1418457 360.66449738 C56.65468926 360.66912421 59.16753212 360.67414869 61.68037415 360.67954254 C68.5192245 360.69268097 75.35806362 360.69915078 82.19692445 360.7035532 C86.4666438 360.70631533 90.73636089 360.71055262 95.00607872 360.71505737 C106.82630808 360.72725014 118.64653562 360.7375495 130.46677113 360.74093246 C131.22336487 360.74115203 131.97995862 360.7413716 132.75947944 360.74159782 C133.89709389 360.74192523 133.89709389 360.74192523 135.05769044 360.74225926 C136.59453126 360.74270273 138.13137208 360.74314929 139.66821289 360.74359894 C140.43053991 360.74382037 141.19286692 360.7440418 141.97829475 360.74426994 C154.33160995 360.74821822 166.68486616 360.76567312 179.03815857 360.78895846 C191.71928404 360.81266893 204.4003799 360.82513417 217.08152789 360.82630038 C224.20226579 360.82721731 231.32292683 360.83297396 238.44364357 360.85112 C245.14046101 360.86812558 251.83710761 360.8697759 258.5339489 360.86098099 C260.99381017 360.86020845 263.45367917 360.86458165 265.91352081 360.87443924 C269.26798753 360.88709507 272.62193198 360.88131623 275.97639465 360.87085724 C276.95295401 360.87891364 277.92951337 360.88697005 278.93566543 360.89527059 C284.16005331 360.85709564 287.90233026 360.48928229 292.39648438 357.50336456 C293.81690258 354.66252815 293.7110071 352.64859179 293.39648438 349.50336456 C291.16442007 346.65555838 289.84655439 345.6533879 286.39648438 344.50336456 C284.94860438 344.41128342 283.49685709 344.37427545 282.04605389 344.3719368 C281.15203167 344.36809565 280.25800945 344.36425451 279.33689564 344.36029696 C278.35364412 344.36116345 277.3703926 344.36202993 276.35734558 344.36292267 C275.3136263 344.35995155 274.26990701 344.35698042 273.19455987 344.35391927 C269.68007292 344.34521369 266.16561995 344.34372245 262.65112305 344.34223175 C260.13827949 344.33760492 257.62543663 344.33258044 255.1125946 344.32718658 C248.27374425 344.31404816 241.43490513 344.30757834 234.5960443 344.30317593 C230.32632495 344.3004138 226.05660786 344.2961765 221.78689003 344.29167175 C209.96666067 344.27947898 198.14643313 344.26917963 186.32619762 344.26579666 C185.56960388 344.2655771 184.81301013 344.26535753 184.03348931 344.26513131 C182.89587486 344.26480389 182.89587486 344.26480389 181.73527831 344.26446986 C180.19843749 344.26402639 178.66159667 344.26357983 177.12475586 344.26313019 C176.36242884 344.26290876 175.60010183 344.26268733 174.814674 344.26245919 C162.4613588 344.2585109 150.10810259 344.241056 137.75481018 344.21777067 C125.07368471 344.1940602 112.39258885 344.18159495 99.71144086 344.18042874 C92.59070296 344.17951182 85.47004192 344.17375517 78.34932518 344.15560913 C71.65250774 344.13860354 64.95586114 344.13695323 58.25901985 344.14574814 C55.79915858 344.14652067 53.33928958 344.14214747 50.87944794 344.13228989 C47.52498122 344.11963406 44.17103677 344.12541289 40.8165741 344.13587189 C39.84001474 344.12781548 38.86345538 344.11975908 37.85730332 344.11145854 C32.63291544 344.14963349 28.89063849 344.51744683 24.39648438 347.50336456 Z M24.39648438 387.50336456 C22.97606617 390.34420098 23.08196165 392.35813734 23.39648438 395.50336456 C25.62854868 398.35117075 26.94641436 399.35334122 30.39648438 400.50336456 C31.84436437 400.59544571 33.29611166 400.63245368 34.74691486 400.63479233 C35.64093708 400.63863347 36.5349593 400.64247462 37.45607311 400.64643216 C38.43932463 400.64556568 39.42257615 400.6446992 40.43562317 400.64380646 C42.00120209 400.64826314 42.00120209 400.64826314 43.59840888 400.65280986 C47.11289583 400.66151544 50.6273488 400.66300667 54.1418457 400.66449738 C56.65468926 400.66912421 59.16753212 400.67414869 61.68037415 400.67954254 C68.5192245 400.69268097 75.35806362 400.69915078 82.19692445 400.7035532 C86.4666438 400.70631533 90.73636089 400.71055262 95.00607872 400.71505737 C106.82630808 400.72725014 118.64653562 400.7375495 130.46677113 400.74093246 C131.22336487 400.74115203 131.97995862 400.7413716 132.75947944 400.74159782 C133.89709389 400.74192523 133.89709389 400.74192523 135.05769044 400.74225926 C136.59453126 400.74270273 138.13137208 400.74314929 139.66821289 400.74359894 C140.43053991 400.74382037 141.19286692 400.7440418 141.97829475 400.74426994 C154.33160995 400.74821822 166.68486616 400.76567312 179.03815857 400.78895846 C191.71928404 400.81266893 204.4003799 400.82513417 217.08152789 400.82630038 C224.20226579 400.82721731 231.32292683 400.83297396 238.44364357 400.85112 C245.14046101 400.86812558 251.83710761 400.8697759 258.5339489 400.86098099 C260.99381017 400.86020845 263.45367917 400.86458165 265.91352081 400.87443924 C269.26798753 400.88709507 272.62193198 400.88131623 275.97639465 400.87085724 C276.95295401 400.87891364 277.92951337 400.88697005 278.93566543 400.89527059 C284.16005331 400.85709564 287.90233026 400.48928229 292.39648438 397.50336456 C293.81690258 394.66252815 293.7110071 392.64859179 293.39648438 389.50336456 C291.16442007 386.65555838 289.84655439 385.6533879 286.39648438 384.50336456 C284.94860438 384.41128342 283.49685709 384.37427545 282.04605389 384.3719368 C281.15203167 384.36809565 280.25800945 384.36425451 279.33689564 384.36029696 C278.35364412 384.36116345 277.3703926 384.36202993 276.35734558 384.36292267 C275.3136263 384.35995155 274.26990701 384.35698042 273.19455987 384.35391927 C269.68007292 384.34521369 266.16561995 384.34372245 262.65112305 384.34223175 C260.13827949 384.33760492 257.62543663 384.33258044 255.1125946 384.32718658 C248.27374425 384.31404816 241.43490513 384.30757834 234.5960443 384.30317593 C230.32632495 384.3004138 226.05660786 384.2961765 221.78689003 384.29167175 C209.96666067 384.27947898 198.14643313 384.26917963 186.32619762 384.26579666 C185.56960388 384.2655771 184.81301013 384.26535753 184.03348931 384.26513131 C182.89587486 384.26480389 182.89587486 384.26480389 181.73527831 384.26446986 C180.19843749 384.26402639 178.66159667 384.26357983 177.12475586 384.26313019 C176.36242884 384.26290876 175.60010183 384.26268733 174.814674 384.26245919 C162.4613588 384.2585109 150.10810259 384.241056 137.75481018 384.21777067 C125.07368471 384.1940602 112.39258885 384.18159495 99.71144086 384.18042874 C92.59070296 384.17951182 85.47004192 384.17375517 78.34932518 384.15560913 C71.65250774 384.13860354 64.95586114 384.13695323 58.25901985 384.14574814 C55.79915858 384.14652067 53.33928958 384.14214747 50.87944794 384.13228989 C47.52498122 384.11963406 44.17103677 384.12541289 40.8165741 384.13587189 C39.84001474 384.12781548 38.86345538 384.11975908 37.85730332 384.11145854 C32.63291544 384.14963349 28.89063849 384.51744683 24.39648438 387.50336456 Z " fill="#D25285" transform="translate(97.603515625,31.49663543701172)"/>
<path d="M0 0 C47.52 0 95.04 0 144 0 C144 36.96 144 73.92 144 112 C140.81410471 108.81410471 138.16203218 106.09486437 135.50390625 102.5859375 C134.55185303 101.33345215 134.55185303 101.33345215 133.58056641 100.05566406 C132.58162354 98.72873535 132.58162354 98.72873535 131.5625 97.375 C130.86817871 96.45944336 130.17385742 95.54388672 129.45849609 94.60058594 C124.00355382 87.38762343 118.63339719 80.11265868 113.34204102 72.77880859 C112.79862061 72.03195801 112.2552002 71.28510742 111.6953125 70.515625 C111.22109863 69.85852539 110.74688477 69.20142578 110.25830078 68.52441406 C108.46215467 66.3484078 107.14325654 66.02728696 104.375 65.5 C98.12446743 66.42600483 94.40501117 71.57582122 90.11328125 75.9140625 C89.61852295 76.41317139 89.12376465 76.91228027 88.61401367 77.42651367 C87.62967004 78.42538279 86.65181107 79.43068846 85.6809082 80.44262695 C84.49047916 81.66509697 83.24888712 82.83731552 82 84 C81.34 84 80.68 84 80 84 C78.7824707 82.67407227 78.7824707 82.67407227 77.42578125 80.81640625 C76.9261084 80.139729 76.42643555 79.46305176 75.91162109 78.76586914 C75.12005615 77.67520142 75.12005615 77.67520142 74.3125 76.5625 C73.22833339 75.09340391 72.14370024 73.624652 71.05859375 72.15625 C70.53378418 71.44210938 70.00897461 70.72796875 69.46826172 69.9921875 C67.6287027 67.49621118 65.76335491 65.0217529 63.875 62.5625 C63.35679687 61.88316406 62.83859375 61.20382813 62.3046875 60.50390625 C60.37195289 58.27605348 59.12374863 58.01649982 56.1875 57.625 C51.85878438 58.13426066 50.84161257 59.74254169 48 63 C46.88133195 64.1105813 45.75588313 65.21435959 44.625 66.3125 C41.56668131 69.37081869 38.70720478 72.55801598 35.8828125 75.83203125 C33.7842468 78.24842951 31.645603 80.62529024 29.5 83 C26.81016569 85.98062721 24.13689636 88.97245233 21.5 92 C18.11717865 95.88398007 14.66915708 99.70693226 11.21484375 103.52734375 C8.56850387 106.48172319 5.98079538 109.4835572 3.41015625 112.50390625 C2 114 2 114 0 115 C0 77.05 0 39.1 0 0 Z M68.4453125 18.90234375 C64.32022105 24.88930081 64.28391858 30.94935212 65 38 C66.77342433 44.64472914 71.4466647 49.17367959 77 53 C82.99887004 55.94062257 89.8828353 56.09883788 96.3125 54.3828125 C102.44132861 51.67750925 107.23952792 46.59136305 110.171875 40.609375 C112.07805857 34.60309848 112.06438687 27.49708442 109.5 21.6875 C106.01537862 15.74752263 100.5654417 11.08364317 94 9 C82.56554903 7.64363754 75.82182511 10.27353946 68.4453125 18.90234375 Z " fill="#C74D89" transform="translate(136,160)"/>
<path d="M0 0 C79.2 0 158.4 0 240 0 C240 5.28 240 10.56 240 16 C160.8 16 81.6 16 0 16 C0 10.72 0 5.44 0 0 Z " fill="#D15285" transform="translate(136,88)"/>
<path d="M0 0 C4.48573197 3.21572437 7.37782671 6.89393814 10.5625 11.3125 C14.64149825 16.86443455 18.79563464 22.32826939 23.125 27.6875 C26.99564722 32.49239769 30.84436074 37.31129512 34.625 42.1875 C35.42164063 43.21230469 36.21828125 44.23710937 37.0390625 45.29296875 C39 48 39 48 41 52 C12.29 52 -16.42 52 -46 52 C-39.48138293 44.39494676 -32.89779735 36.8732349 -26.1875 29.4375 C-24.27445851 27.30582519 -22.38112388 25.1598089 -20.5 23 C-17.11776532 19.11669351 -13.66920334 15.29533316 -10.21875 11.47265625 C-7.55536058 8.50447755 -4.92866658 5.5058965 -2.3125 2.49609375 C-1.56450684 1.64347059 -0.80201622 0.80201622 0 0 Z " fill="#C54C8A" transform="translate(191,236)"/>
<path d="M0 0 C15.84 0 31.68 0 48 0 C48 7.92 48 15.84 48 24 C32.16 24 16.32 24 0 24 C0 16.08 0 8.16 0 0 Z " fill="#E3597E" transform="translate(328,160)"/>
<path d="M0 0 C3.22417499 1.37196174 4.8673217 2.76919734 6.890625 5.61328125 C7.42800293 6.35715088 7.96538086 7.10102051 8.51904297 7.86743164 C9.09025879 8.6743042 9.66147461 9.48117676 10.25 10.3125 C11.48508125 12.02741015 12.72214134 13.74089646 13.9609375 15.453125 C14.6115918 16.35353516 15.26224609 17.25394531 15.93261719 18.18164062 C20.18416428 23.97756169 24.60624475 29.64704108 29.02050781 35.31958008 C29.67116211 36.16415771 30.32181641 37.00873535 30.9921875 37.87890625 C31.86399658 39.00147827 31.86399658 39.00147827 32.75341797 40.14672852 C34 42 34 42 34 44 C15.87945289 45.95059712 15.87945289 45.95059712 9.73046875 41.78515625 C7.63436351 39.20819973 5.79709663 36.62568137 4.09912109 33.77148438 C2.18469508 30.68595014 -0.12371914 27.90589856 -2.375 25.0625 C-3.16648438 24.02222656 -3.95796875 22.98195313 -4.7734375 21.91015625 C-6.95005811 18.988291 -6.95005811 18.988291 -9.3515625 16.37109375 C-11 14 -11 14 -11.06640625 12.015625 C-9.50216523 9.05903758 -7.34113553 7.06235823 -4.9375 4.75 C-4.01839844 3.85796875 -3.09929687 2.9659375 -2.15234375 2.046875 C-1.44207031 1.37140625 -0.73179687 0.6959375 0 0 Z " fill="#D05186" transform="translate(238,244)"/>
<path d="M0 0 C2.5 1.5 2.5 1.5 4 4 C4.791013 8.02098277 4.62153384 10.96411027 2.5 14.5 C-1.03588973 16.62153384 -3.97901723 16.791013 -8 16 C-10.5 14.5 -10.5 14.5 -12 12 C-12.791013 7.97901723 -12.62153384 5.03588973 -10.5 1.5 C-6.96411027 -0.62153384 -4.02098277 -0.791013 0 0 Z " fill="#CB4F87" transform="translate(228,184)"/>
</svg>
